EMG
version=1
nRows=20
nColumns=17
inDegrees=no
endheader
time	_right_gast_med	_right_glut_max	_left_gast_med	_left_glut_max	_right_glut_med	_right_bic_fem	_right_rect_fem	_right_vast_lat	_right_vast_med	_right_tens_fasc_lat	_left_glut_med	_left_bic_fem	_left_rect_fem	_left_vast_lat	_left_vast_med	_left_tens_fasc_lat
      0.00000000	      1.99799716	     -0.01058856	      0.01316679	     -0.00487481	     -0.02366576	      0.03600465	      0.01218765	      0.19111314	     -0.04549917	      0.01446186	     -0.01126234	     -0.16763850	      0.00361342	      0.01656329	     -0.03938298	      0.04772707
      0.01000000	      1.06278670	      0.07269000	      0.02402881	      0.03331751	     -0.05908150	      0.03676675	      0.01686743	      0.23842403	     -0.05878282	     -0.00030874	     -0.01837986	     -0.10365279	      0.01716691	      0.07321136	     -0.01902863	      0.04339300
      0.02000000	     -1.88705766	      0.12487017	      0.01626139	     -0.00249578	     -0.06199656	      0.03528690	      0.01927675	      0.14078136	     -0.03147705	     -0.01912026	     -0.01605064	     -0.02471900	      0.02286111	      0.09935988	      0.05348182	      0.03072448
      0.03000000	     -2.88574862	      0.10553548	     -0.00283420	     -0.09841726	     -0.04369744	      0.03910769	      0.03238787	     -0.02156191	     -0.00013570	     -0.03270162	     -0.01963317	      0.04077885	      0.00951144	      0.07759385	      0.15285185	      0.01778674
      0.04000000	     -1.58059013	     -0.00966688	      0.03775588	     -0.13951275	     -0.03114482	      0.03096216	      0.03140223	     -0.13743903	      0.01085331	     -0.01088116	     -0.01706881	      0.07893642	     -0.01027091	      0.03227783	      0.17036471	      0.00287526
      0.05000000	     -0.18542434	     -0.08376879	      0.01812599	     -0.06329653	     -0.02557895	      0.00164767	      0.02130569	     -0.16805860	      0.01556874	      0.02137363	     -0.00210932	      0.06987245	     -0.01191415	      0.00629301	      0.02260349	     -0.00998288
      0.06000000	      0.85618389	     -0.00968835	     -0.03369609	      0.03601104	     -0.01831012	     -0.02509368	      0.03206118	     -0.16131769	      0.00993298	      0.01721262	      0.01409584	      0.03700185	      0.00166811	      0.00182368	     -0.22689061	     -0.01395704
      0.07000000	      0.87880743	      0.04288739	     -0.01012450	      0.04996396	     -0.00870960	     -0.01599633	      0.03927711	     -0.13736993	     -0.05727081	      0.00334141	      0.02629108	      0.02517360	      0.01135829	     -0.00253726	     -0.31541252	     -0.01474801
      0.08000000	      0.12379262	     -0.01141913	      0.04358973	      0.01251591	      0.00014956	      0.01625507	      0.03247399	     -0.07461565	     -0.16506784	     -0.00214767	      0.04441703	      0.01815541	      0.01540416	      0.00878723	     -0.05393829	     -0.02765443
      0.09000000	      0.05301424	     -0.07102769	      0.06563155	     -0.00171660	      0.00265516	      0.02936185	      0.01938537	      0.00200737	     -0.21604526	     -0.00533488	      0.06919181	      0.00149729	      0.01930785	      0.03230537	      0.31792414	     -0.04580439
      0.10000000	     -0.00853377	     -0.07751691	      0.01965191	      0.01164482	      0.00541126	      0.02040564	     -0.00214049	      0.05112174	     -0.20391212	     -0.01773542	      0.08377797	      0.02165451	      0.01250563	      0.06073892	      0.42617893	     -0.03913127
      0.11000000	     -0.07715205	     -0.04109426	     -0.02746146	      0.04741242	      0.01090831	      0.01813287	     -0.01499624	      0.06326152	     -0.15655573	     -0.06166255	      0.04725929	     -0.00501839	     -0.00547330	      0.08065397	      0.24925250	     -0.00885439
      0.12000000	      0.12967555	      0.03903163	     -0.01079392	      0.05538893	     -0.00729726	      0.02428092	     -0.03119504	      0.05210785	     -0.07343306	     -0.05611993	     -0.02620461	     -0.05668907	     -0.00828785	      0.04312643	      0.04351379	      0.02162766
      0.13000000	      0.26825783	      0.10370070	      0.01095983	     -0.03657344	     -0.06227014	      0.02107208	     -0.06571881	      0.04456094	      0.02531147	      0.01892839	     -0.05878218	     -0.01980860	     -0.01059578	     -0.03095010	     -0.09068775	      0.03310788
      0.14000000	      0.26707134	      0.13439395	      0.02270684	     -0.06565568	     -0.09377852	      0.00794029	     -0.04750010	      0.04627506	      0.07778759	      0.02273082	     -0.08266382	      0.02470868	     -0.03900256	     -0.01024392	     -0.21286806	      0.00874031
      0.15000000	      0.22482087	      0.17959586	      0.06770519	     -0.02557482	     -0.06587313	     -0.00290829	     -0.00323069	      0.04337953	      0.07410864	     -0.00097467	     -0.09102462	      0.00956555	     -0.01593055	      0.14422682	     -0.36937279	     -0.02495318
      0.16000000	      0.17709456	      0.11692470	      0.04477684	     -0.07368024	     -0.00370569	     -0.00420616	      0.00409690	      0.03618030	      0.05546055	     -0.00325988	     -0.02590713	      0.00624904	      0.06786405	      0.14332058	     -0.22797929	      0.00066536
      0.17000000	      0.12389667	     -0.21452926	     -0.00551446	     -0.01663917	      0.06140871	      0.00327670	     -0.00258854	      0.02540752	      0.04287418	     -0.00022104	     -0.03106934	      0.01295775	      0.06121343	     -0.03243138	      0.20628421	      0.06296827
      0.18000000	      0.06699400	     -0.55005956	     -0.01181305	      0.08342434	      0.09701509	      0.00607435	     -0.00347149	      0.01610438	      0.03488707	      0.02760193	     -0.07742403	      0.02779718	      0.00381312	     -0.07389448	      0.31971201	      0.08656158
      0.19000000	      0.09634614	     -0.18814775	     -0.01254416	     -0.01301591	      0.09361004	     -0.00517236	      0.02284100	      0.01752280	      0.02902238	      0.02096143	      0.02442704	      0.05922677	     -0.00215494	      0.07599407	      0.15714140	      0.02521503
